<?xml version="1.0" encoding="UTF-8" standalone="no"?>
<svg
   xmlns:dc="http://purl.org/dc/elements/1.1/"
   xmlns:cc="http://creativecommons.org/ns#"
   xmlns:rdf="http://www.w3.org/1999/02/22-rdf-syntax-ns#"
   xmlns:svg="http://www.w3.org/2000/svg"
   xmlns="http://www.w3.org/2000/svg"
   xmlns:sodipodi="http://sodipodi.sourceforge.net/DTD/sodipodi-0.dtd"
   xmlns:inkscape="http://www.inkscape.org/namespaces/inkscape"
   version="1.1"
   id="svg4173"
   width="1280"
   height="600"
   viewBox="0 0 1280 599.99997"
   sodipodi:docname="logo-auto-patron-napis-dol-tloki.svg"
   inkscape:version="1.0.1 (3bc2e813f5, 2020-09-07)"
   inkscape:export-filename="C:\Users\tytan\OneDrive\Pulpit\logo-auto-patron-napis-dol3.png"
   inkscape:export-xdpi="96"
   inkscape:export-ydpi="96">
  <metadata
     id="metadata4179">
    <rdf:RDF>
      <cc:Work
         rdf:about="">
        <dc:format>image/svg+xml</dc:format>
        <dc:type
           rdf:resource="http://purl.org/dc/dcmitype/StillImage" />
        <dc:title></dc:title>
      </cc:Work>
    </rdf:RDF>
  </metadata>
  <defs
     id="defs4177">
    <rect
       x="438"
       y="26"
       width="445"
       height="115"
       id="rect5400" />
    <filter
       inkscape:collect="always"
       style="color-interpolation-filters:sRGB"
       id="filter842"
       x="-8.4320038e-07"
       width="1.0000017"
       y="-2.0802609e-06"
       height="1.0000042">
      <feGaussianBlur
         inkscape:collect="always"
         stdDeviation="4.7599309e-05"
         id="feGaussianBlur844" />
    </filter>
  </defs>
  <sodipodi:namedview
     pagecolor="#000000"
     bordercolor="#666666"
     borderopacity="1"
     objecttolerance="10"
     gridtolerance="10"
     guidetolerance="10"
     inkscape:pageopacity="0"
     inkscape:pageshadow="2"
     inkscape:window-width="1920"
     inkscape:window-height="1001"
     id="namedview4175"
     showgrid="false"
     showborder="true"
     inkscape:zoom="0.67379235"
     inkscape:cx="601.66057"
     inkscape:cy="409.4412"
     inkscape:window-x="1911"
     inkscape:window-y="-9"
     inkscape:window-maximized="1"
     inkscape:current-layer="g4181"
     inkscape:snap-text-baseline="false"
     inkscape:document-rotation="0"
     showguides="true"
     inkscape:guide-bbox="true" />
  <g
     inkscape:groupmode="layer"
     inkscape:label="Image"
     id="g4181">
    <g
       id="g878"
       transform="matrix(1.032939,0,0,1.0104305,-100.26608,-11.241442)"
       style="fill:#ffffff;stroke:none">
      <path
         id="path4750"
         style="fill:#ffffff;stroke-width:0.305629;stroke:none"
         d="m 1332.5899,11.125399 -1.1525,3.472271 c -11.0229,33.162172 -40.0608,61.559082 -87.4737,86.7998 -9.9704,5.30786 -20.9067,11.77511 -36.1842,20.7184 -8.1629,4.77843 -42.4939,21.51631 -42.4939,21.51631 -0.032,0.0661 -11.0816,5.17774 -9.0374,3.19952 8.0998,-7.83846 6.5673,-6.32742 10.0926,-10.13791 13.9513,-15.08022 11.574,-27.86366 10.8406,-26.23209 -7.6864,18.5928 -42.0726,43.66197 -79.9889,58.31885 -6.4956,2.51093 -14.7572,5.36475 -18.1582,5.9534 -8.243,1.42665 -4.3876,-3.18543 2.2465,-9.77376 7.2242,-7.17416 6.0492,-15.49879 6.0111,-15.5365 -0.038,-0.0377 -0.905,0.6811 -1.9232,1.59866 -4.8935,4.40999 -10.6802,8.13079 -18.513,11.90012 -15.0872,7.2605 -29.6598,11.63404 -69.11435,20.74267 -19.15838,4.42298 -25.31456,6.40078 -36.71878,11.79814 -9.00835,4.26346 -17.65462,9.78155 -26.28933,16.77813 -4.26525,3.45604 -13.7805,13.03241 -17.50954,17.62071 -5.49879,6.76588 -10.9734,15.13905 -14.82703,22.67834 -5.32873,10.42481 -11.95821,29.27644 -18.15384,51.62044 -1.1064,3.99027 -2.71669,9.80282 -3.57741,12.91565 -6.61877,23.93821 -11.77824,41.28884 -18.89237,54.59283 -6.81353,11.49096 -16.63644,27.35515 -27.33154,40.15133 l -15.1593,16.74896 c -6.8407,5.75843 -13.28054,9.96512 -22.57368,14.26581 -2.00298,0.92693 -13.55979,6.07241 -21.464,7.06302 -3.12747,0.39197 -2.9384,0.43156 -8.45064,0.45198 -2.64492,0.0105 -4.81891,0.55737 -4.86554,0.60312 -0.19402,0.1903 3.62308,1.96166 5.48024,2.5432 3.22311,1.0093 6.7469,1.36728 11.54576,1.17072 4.25001,-0.17417 7.15321,-0.54273 17.4577,-2.22172 4.39985,-0.71686 5.97092,-0.83023 11.57066,-0.83588 4.8171,-0.004 7.27006,0.12879 9.56383,0.52326 8.25091,1.41828 15.67177,3.76256 31.28152,9.87798 6.00401,2.35218 12.52976,4.80172 14.50173,5.44563 7.25954,2.37034 14.24265,3.89982 20.70743,4.53435 v 0 c 8.83422,0.86636 18.09818,-0.62867 24.83617,-4.00885 l 2.46789,-1.23946 -3.51429,-0.37251 c -8.4151,-0.89231 -15.41179,-3.10064 -25.45987,-8.03763 -5.31559,-2.61179 -10.8372,-5.77068 -23.16839,-13.25489 -11.25745,-6.83245 -17.4114,-10.36666 -22.37292,-12.8469 -1.61225,-0.80596 -3.0425,-1.56116 -3.17742,-1.68072 -0.13515,-0.1196 1.11507,-0.57298 2.77741,-1.00663 15.92749,-4.15462 34.10281,-2.3771 55.78542,5.45449 6.00576,2.1692 12.11818,4.68783 23.09829,9.52101 24.80766,10.91959 35.30058,14.59048 48.23286,16.87126 12.37321,2.18173 26.99509,2.18424 39.81023,0.008 14.4638,-2.45771 28.2763,-7.61915 41.0623,-15.34579 1.2369,-0.74749 2.1927,-1.41382 2.1243,-1.48114 -0.068,-0.0674 -1.3579,0.14544 -2.8656,0.47451 -7.6528,1.66998 -11.107,1.98359 -21.7174,1.97336 -8.8078,-0.009 -10.5496,-0.0898 -14.312,-0.67625 -15.53885,-2.42156 -29.48192,-7.62568 -49.94587,-18.64065 -14.90142,-8.02088 -18.54779,-9.9379 -24.28709,-12.76488 -16.55776,-8.15564 -29.88721,-12.23538 -46.59892,-14.26598 -5.47987,-0.66584 -22.0783,-0.76572 -26.96726,-0.16188 -1.67937,0.20746 -3.12304,0.30831 -3.209,0.22395 -0.2452,-0.24048 6.54934,-3.35176 9.96604,-4.56315 9.03481,-3.20324 21.07339,-4.98683 33.59781,-4.98001 15.56577,0.009 31.70481,2.24001 53.5662,7.41014 30.34614,7.17676 48.92679,10.32697 72.66469,12.32142 6.2839,0.52946 30.9277,0.53175 36.7165,0.004 27.3555,-2.49211 48.1179,-8.421 66.8026,-19.07523 17.8997,-10.20661 31.7116,-24.15413 42.6916,-43.11054 l 0.8272,-1.42794 -4.2487,2.79822 c -25.3629,16.69388 -59.2906,24.25364 -101.5981,22.63841 -13.6267,-0.52024 -20.1158,-1.00605 -46.8996,-3.51438 -30.54442,-2.86053 -40.39888,-3.44563 -62.17208,-3.68291 -21.00069,-0.22884 -37.69802,0.3726 -56.42021,2.03103 -8.00419,0.70915 -8.59348,0.7068 -6.37066,-0.0163 15.0218,-4.88138 31.8449,-9.05669 49.98422,-12.40789 21.96955,-4.05884 45.38701,-7.00342 85.46923,-10.74493 35.7256,-3.33484 54.3078,-5.33881 70.3505,-7.58972 42.4616,-5.95769 70.8658,-15.00878 94.2624,-30.03526 21.8444,-14.02953 41.0086,-34.54928 57.9843,-62.08158 1.474,-2.3907 2.6307,-4.39588 2.5697,-4.45673 -0.063,-0.0609 -1.4947,0.99629 -3.1819,2.3503 -31.477,25.25837 -72.5245,41.35643 -129.517,50.78899 -16.3026,2.6982 -28.7539,4.26859 -63.6184,8.03098 -27.1334,2.92809 -37.8094,4.1893 -50.2939,5.94231 -35.77829,5.02384 -63.20352,11.70025 -88.01368,21.42334 -0.89093,0.34916 -1.62033,0.57347 -1.62033,0.49888 0,-0.22953 9.65667,-5.80049 13.81243,-7.96889 23.34741,-12.1828 49.43461,-20.72789 84.30758,-27.61399 15.8333,-3.12649 27.3449,-4.97245 58.3166,-9.35025 47.2339,-6.67643 66.8811,-10.29814 89.6342,-16.52759 39.7498,-10.88294 70.5834,-27.25382 94.3732,-50.10162 15.4133,-14.80308 25.7545,-29.54552 32.599,-46.47193 2.0674,-5.11246 5.1661,-14.70418 4.547,-14.07529 -0.082,0.0833 -1.2367,1.44483 -2.5651,3.02657 -3.1141,3.70817 -9.244,9.85881 -13.5571,13.60301 -23.8519,20.70617 -56.0772,35.43096 -101.9756,46.59388 -19.4378,4.72747 -36.7768,8.18258 -75.4421,15.03092 -38.9375,6.89665 -55.3208,10.18901 -76.0568,15.28813 -32.24479,7.92928 -59.52651,17.92364 -82.63512,30.27029 -2.45776,1.31315 -2.79395,1.42654 -2.31412,0.78048 0.97898,-1.31818 10.62882,-10.54302 13.51871,-12.92228 8.07274,-6.6463 18.02721,-12.96057 28.69598,-18.20387 18.85205,-9.26512 38.90255,-15.84148 74.51545,-24.44327 14.7806,-3.57 54.8192,-13.39381 66.6466,-16.35242 25.4586,-6.36837 35.2709,-8.81469 56.4659,-14.07307 24.999,-6.20214 30.8011,-7.79053 41.4985,-11.36578 19.4691,-6.50688 35.3608,-13.96848 49.8305,-23.3945 21.9096,-14.27244 36.7571,-31.80554 47.9821,-56.66475 6.7667,-14.985696 11.1211,-30.673202 13.3176,-47.984127 0.7964,-6.248281 0.8012,-24.691414 0.018,-30.425471 -0.5971,-4.335728 -1.826,-10.585114 -2.5854,-13.157351 z"
         sodipodi:nodetypes="ccsscsscssssssssssssscccssssssscsssssccssssscsscsssscssssssscsccssccssssssssssccssssssssssssssssssssssssssscscc" />
      <path
         id="path5396"
         style="fill:#ffffff;stroke-width:0.305629;stroke:none"
         d="m 100.73003,11.125399 1.15264,3.472271 c 11.02282,33.162172 40.0608,61.559082 87.47364,86.7998 9.97043,5.30786 20.90671,11.77511 36.18422,20.7184 8.16287,4.77843 42.49395,21.51631 42.49395,21.51631 0.0317,0.0661 11.08161,5.17774 9.03737,3.19952 -8.09988,-7.83846 -6.56725,-6.32742 -10.09259,-10.13791 -13.95141,-15.08022 -11.57402,-27.86366 -10.8407,-26.23209 7.68657,18.5928 42.07262,43.66197 79.98892,58.31885 6.49565,2.51093 14.75732,5.36475 18.15827,5.9534 8.24295,1.42665 4.38761,-3.18543 -2.24654,-9.77376 -7.22415,-7.17416 -6.04927,-15.49879 -6.01108,-15.5365 0.0381,-0.0377 0.90493,0.6811 1.92316,1.59866 4.89347,4.40999 10.68031,8.13079 18.51307,11.90012 15.08721,7.2605 29.65987,11.63404 69.1143,20.74267 19.15835,4.42298 25.31453,6.40078 36.7188,11.79814 9.00834,4.26346 17.65463,9.78155 26.28934,16.77813 4.26518,3.45604 13.78045,13.03241 17.50955,17.62071 5.49883,6.76588 10.97336,15.13905 14.82703,22.67834 5.32875,10.42481 11.95819,29.27644 18.15381,51.62044 1.10641,3.99027 2.71669,9.80282 3.57743,12.91565 6.61876,23.93821 11.77823,41.28884 18.89235,54.59283 6.81355,11.49096 16.63646,27.35515 27.33154,40.15133 l 15.15932,16.74896 c 6.84069,5.75843 13.28053,9.96512 22.57366,14.26581 2.00298,0.92693 13.5598,6.07241 21.464,7.06302 3.12747,0.39197 2.9384,0.43156 8.45064,0.45198 2.64493,0.0105 4.81893,0.55737 4.86556,0.60312 0.194,0.1903 -3.6231,1.96166 -5.48026,2.5432 -3.2231,1.0093 -6.74689,1.36728 -11.54576,1.17072 -4.25001,-0.17417 -7.15321,-0.54273 -17.45768,-2.22172 -4.39987,-0.71686 -5.97094,-0.83023 -11.57068,-0.83588 -4.81708,-0.004 -7.27005,0.12879 -9.56383,0.52326 -8.25091,1.41828 -15.67176,3.76256 -31.2815,9.87798 -6.00402,2.35218 -12.52976,4.80172 -14.50174,5.44563 -7.25954,2.37034 -14.24266,3.89982 -20.70742,4.53435 v 0 c -8.83423,0.86636 -18.09817,-0.62867 -24.83617,-4.00885 l -2.4679,-1.23946 3.51424,-0.37251 c 8.41517,-0.89231 15.41183,-3.10064 25.45992,-8.03763 5.31559,-2.61179 10.83721,-5.77068 23.1684,-13.25489 11.25743,-6.83245 17.4114,-10.36666 22.37292,-12.8469 1.61225,-0.80596 3.04248,-1.56116 3.1774,-1.68072 0.13515,-0.1196 -1.11507,-0.57298 -2.77741,-1.00663 -15.92748,-4.15462 -34.10279,-2.3771 -55.7854,5.45449 -6.00577,2.1692 -12.11813,4.68783 -23.09836,9.52101 -24.80759,10.91959 -35.30058,14.59048 -48.23286,16.87126 -12.37321,2.18173 -26.99505,2.18424 -39.81025,0.008 -14.46377,-2.45771 -28.27624,-7.61915 -41.06217,-15.34579 -1.23702,-0.74749 -2.19264,-1.41382 -2.12438,-1.48114 0.0683,-0.0674 1.35784,0.14544 2.86559,0.47451 7.65282,1.66998 11.10702,1.98359 21.71754,1.97336 8.80771,-0.009 10.54945,-0.0898 14.31198,-0.67625 15.53871,-2.42156 29.48182,-7.62568 49.9458,-18.64065 14.90139,-8.02088 18.54776,-9.9379 24.28705,-12.76488 16.55773,-8.15564 29.88717,-12.23538 46.59894,-14.26598 5.47987,-0.66584 22.07831,-0.76572 26.96726,-0.16188 1.67937,0.20746 3.12304,0.30831 3.20901,0.22395 0.24519,-0.24048 -6.54934,-3.35176 -9.96603,-4.56315 -9.03482,-3.20324 -21.07341,-4.98683 -33.59787,-4.98001 -15.56572,0.009 -31.70481,2.24001 -53.56618,7.41014 -30.34615,7.17676 -48.92676,10.32697 -72.66456,12.32142 -6.28403,0.52946 -30.92778,0.53175 -36.71659,0.004 -27.35547,-2.49211 -48.11782,-8.421 -66.80266,-19.07523 -17.89963,-10.20661 -31.71166,-24.15413 -42.69163,-43.11054 l -0.82719,-1.42794 4.24875,2.79822 c 25.36288,16.69388 59.29058,24.25364 101.59813,22.63841 13.62677,-0.52024 20.11581,-1.00605 46.89956,-3.51438 30.54447,-2.86053 40.39886,-3.44563 62.17206,-3.68291 21.00076,-0.22884 37.69803,0.3726 56.42032,2.03103 8.00412,0.70915 8.59341,0.7068 6.37059,-0.0163 -15.02178,-4.88138 -31.84495,-9.05669 -49.98416,-12.40789 -21.96966,-4.05884 -45.38705,-7.00342 -85.4692,-10.74493 -35.72568,-3.33484 -54.30782,-5.33881 -70.35056,-7.58972 -42.46167,-5.95769 -70.86586,-15.00878 -94.26241,-30.03526 -21.84438,-14.02953 -41.00858,-34.54928 -57.98436,-62.08158 -1.47405,-2.3907 -2.63068,-4.39588 -2.56962,-4.45673 0.0632,-0.0609 1.49465,0.99629 3.1819,2.3503 31.47697,25.25837 72.52457,41.35643 129.51692,50.78899 16.30266,2.6982 28.75395,4.26859 63.61841,8.03098 27.13342,2.92809 37.80932,4.1893 50.29395,5.94231 35.77832,5.02384 63.20345,11.70025 88.01361,21.42334 0.89094,0.34916 1.62034,0.57347 1.62034,0.49888 0,-0.22953 -9.65661,-5.80049 -13.81234,-7.96889 -23.34751,-12.1828 -49.43471,-20.72789 -84.30762,-27.61399 -15.83331,-3.12649 -27.34484,-4.97245 -58.31661,-9.35025 -47.23392,-6.67643 -66.88109,-10.29814 -89.63415,-16.52759 -39.74986,-10.88294 -70.58348,-27.25382 -94.37327,-50.10162 -15.4132,-14.80308 -25.75455,-29.54552 -32.59892,-46.47193 -2.06754,-5.11246 -5.16615,-14.70418 -4.547,-14.07529 0.0813,0.0833 1.23665,1.44483 2.5651,3.02657 3.11414,3.70817 9.24397,9.85881 13.55702,13.60301 23.85195,20.70617 56.07723,35.43096 101.97554,46.59388 19.43783,4.72747 36.77692,8.18258 75.44223,15.03092 38.93743,6.89665 55.32066,10.18901 76.05668,15.28813 32.24487,7.92928 59.52665,17.92364 82.63523,30.27029 2.45771,1.31315 2.79395,1.42654 2.31412,0.78048 -0.97898,-1.31818 -10.62882,-10.54302 -13.51869,-12.92228 -8.07274,-6.6463 -18.02732,-12.96057 -28.69605,-18.20387 -18.85207,-9.26512 -38.90252,-15.84148 -74.51551,-24.44327 -14.78047,-3.57 -54.81912,-13.39381 -66.64658,-16.35242 -25.45863,-6.36837 -35.27088,-8.81469 -56.46579,-14.07307 -24.99899,-6.20214 -30.80109,-7.79053 -41.49854,-11.36578 -19.46915,-6.50688 -35.36075,-13.96848 -49.83051,-23.3945 C 137.06024,146.74092 122.2127,129.20782 110.98772,104.34861 104.22104,89.362914 99.866623,73.675408 97.670075,56.364483 96.873696,50.116202 96.869004,31.673069 97.651939,25.939012 c 0.5971,-4.335728 1.825996,-10.585114 2.585341,-13.157351 z"
         sodipodi:nodetypes="ccsscsscssssssssssssscccssssssscsssssccssssscsscsssscssssssscsccssccssssssssssccssssssssssssssssssssssssssscscc" />
      <text
         xml:space="preserve"
         id="text5398"
         style="font-style:normal;font-weight:normal;font-size:40px;line-height:1.25;font-family:sans-serif;white-space:pre;shape-inside:url(#rect5400);fill:#ffffff;fill-opacity:1;stroke:none;" />
      <text
         xml:space="preserve"
         style="font-style:normal;font-variant:normal;font-weight:normal;font-stretch:normal;font-size:81.0621px;line-height:1.25;font-family:Impact;-inkscape-font-specification:'Impact, Normal';font-variant-ligatures:normal;font-variant-caps:normal;font-variant-numeric:normal;font-variant-east-asian:normal;fill:#ffffff;fill-opacity:1;stroke:none;stroke-width:2.2267"
         x="438.0705"
         y="190.89056"
         id="text5406"
         transform="scale(1.2140601,0.82368245)"
         inkscape:transform-center-x="-69.000002"
         inkscape:transform-center-y="18.000001"><tspan
           id="tspan5404"
           x="438.0705"
           y="190.89056"
           style="font-style:normal;font-variant:normal;font-weight:normal;font-stretch:normal;font-size:81.0621px;font-family:Impact;-inkscape-font-specification:'Impact, Normal';font-variant-ligatures:normal;font-variant-caps:normal;font-variant-numeric:normal;font-variant-east-asian:normal;stroke-width:2.2267;fill:#ffffff;stroke:none"
           sodipodi:role="line" /></text>
      <text
         xml:space="preserve"
         style="font-style:normal;font-variant:normal;font-weight:normal;font-stretch:normal;font-size:123.163px;line-height:1.25;font-family:Impact;-inkscape-font-specification:'Impact, Normal';font-variant-ligatures:normal;font-variant-caps:normal;font-variant-numeric:normal;font-variant-east-asian:normal;fill:#ffffff;fill-opacity:1;stroke:none;stroke-width:3.61333;stroke-miterlimit:4;stroke-dasharray:none;stroke-opacity:1"
         id="text5412"
         x="686.15558"
         y="601.0603"><tspan
           id="tspan5410"
           style="font-style:normal;font-variant:normal;font-weight:normal;font-stretch:normal;font-size:123.163px;font-family:Impact;-inkscape-font-specification:'Impact, Normal';font-variant-ligatures:normal;font-variant-caps:normal;font-variant-numeric:normal;font-variant-east-asian:normal;fill:#ffffff;fill-opacity:1;stroke:none;stroke-width:3.61333;stroke-miterlimit:4;stroke-dasharray:none;stroke-opacity:1">PATRON</tspan></text>
      <text
         xml:space="preserve"
         style="font-style:normal;font-variant:normal;font-weight:normal;font-stretch:normal;font-size:66.6667px;line-height:1.25;font-family:Impact;-inkscape-font-specification:'Impact, Normal';font-variant-ligatures:normal;font-variant-caps:normal;font-variant-numeric:normal;font-variant-east-asian:normal;opacity:0.999;fill:#ffffff;fill-opacity:1;stroke:none;stroke-width:2.00061736;stroke-miterlimit:4;stroke-dasharray:none;stroke-opacity:1;filter:url(#filter842)"
         id="text5416"
         x="563.52448"
         y="479.04117"
         transform="matrix(1.8066644,0,0,1.8066644,-613.60919,-265.48075)"><tspan
           id="tspan5414"
           style="font-style:normal;font-variant:normal;font-weight:normal;font-stretch:normal;font-size:66.6667px;font-family:Impact;-inkscape-font-specification:'Impact, Normal';font-variant-ligatures:normal;font-variant-caps:normal;font-variant-numeric:normal;font-variant-east-asian:normal;fill:#ffffff;fill-opacity:1;stroke:none;stroke-width:2.00061736;stroke-miterlimit:4;stroke-dasharray:none;stroke-opacity:1">AUTO</tspan></text>
      <path
         style="fill:#ffffff;stroke:none;stroke-width:0.976403"
         d="m 792.9449,150.79524 c 16.88498,9.40974 30.90027,23.961 44.9146,37.01551 19.6658,18.32027 43.12586,38.15007 53.70226,63.55411 6.81727,-4.80194 23.23848,-18.80456 24.51461,-27.33929 0.96465,-6.44817 -6.79477,-15.61173 -10.2854,-20.50448 -12.56346,-17.60944 -28.03652,-31.93624 -43.52129,-46.85686 -9.29927,-8.96095 -19.59749,-17.11764 -30.26859,-24.39271 -3.52874,-2.40616 -9.11477,-6.79667 -13.66577,-6.3444 -3.55604,0.35326 -5.78712,3.90896 -7.98112,6.31726 -5.69145,6.24729 -12.53213,11.62788 -17.4093,18.55086 m -6.8348,7.81126 c 21.73282,14.78374 40.07261,33.23776 58.58423,51.74941 14.08957,14.08952 30.02447,29.46983 40.03261,46.8674 9.53363,-5.31356 -8.37169,-23.38291 -12.74207,-28.31571 -18.88559,-21.31196 -37.67069,-43.16292 -60.48827,-60.41016 -5.30382,-4.01007 -20.70367,-18.93469 -25.3865,-9.89094 m -3.90565,1.95279 c -16.7717,16.77172 -33.89978,33.12063 -50.77301,49.79272 -2.30526,2.27792 -18.23725,13.96456 -13.99967,17.53332 4.25715,3.58529 13.51344,-7.16585 17.90534,-8.00166 4.77655,-0.90903 8.02312,5.01679 12.69322,3.08152 17.32044,-7.18143 25.93524,-33.642 43.93818,-39.89781 7.59841,-2.64024 14.93413,7.12386 19.52809,11.66216 14.13641,13.96747 37.0731,28.92111 46.04727,46.87132 4.21315,8.42734 -1.25077,13.77805 -6.9911,19.52804 -9.27195,9.28762 -26.35998,19.85228 -32.14027,31.65897 -2.23502,4.56467 4.24243,10.05307 3.56191,15.20845 -0.47162,3.57561 -13.23124,15.16357 -9.08451,17.40342 4.04917,2.18813 14.36292,-10.00524 17.15837,-12.60925 13.27225,-12.36228 25.78493,-25.54177 39.0562,-37.90402 3.59415,-3.34906 13.25374,-9.05126 12.64834,-14.73394 -0.98517,-9.26317 -16.29714,-22.75512 -22.38796,-29.29212 -22.75024,-24.41794 -47.91612,-53.4777 -77.1604,-70.30112 m -28.31568,63.46628 v 0.9764 c 3.53558,3.53556 9.26217,7.58664 10.41533,12.69326 1.38354,6.12692 -2.5973,13.74874 -5.96294,18.55167 -8.82278,12.59074 -20.95949,23.34193 -31.79169,34.17412 -16.52078,16.52081 -35.15157,33.2622 -57.60784,41.14082 -6.61104,2.31897 -12.76911,3.14401 -19.52809,1.11701 -5.16775,-1.55055 -11.04313,-5.7559 -16.59889,-4.57055 -6.50067,1.3865 -10.50834,7.57397 -14.73345,12.10936 -9.38518,10.07554 -18.55726,20.47713 -28.2321,30.26853 -4.86837,4.92696 -11.16073,9.27192 -11.71307,16.59887 -4.42702,-0.65322 -8.44415,2.97316 -7.61004,7.81127 1.6955,9.83433 12.60445,14.32579 20.3033,8.78761 4.10164,19.81906 13.22734,35.12222 31.24495,45.04639 5.94326,3.27389 15.03747,3.69669 20.1797,7.76631 3.2319,2.55721 0.43205,6.39744 1.62134,9.67324 2.79789,7.70774 13.02247,9.56876 19.20794,5.86234 l -0.97645,-2.9292 c 6.78015,0.74793 9.43406,-4.31768 13.70775,-8.78762 8.10318,-8.47327 16.10477,-17.07925 24.37104,-25.38653 5.52059,-5.54696 16.98454,-14.50641 18.32617,-22.45731 1.00175,-5.94236 -3.01225,-11.1398 -4.61355,-16.59882 -2.01924,-6.88367 -1.55442,-15.60785 0.37589,-22.45735 6.06153,-21.50626 25.37969,-39.83142 39.37352,-56.63142 9.9486,-11.94238 20.05925,-24.01368 32.46251,-33.51021 3.67516,-2.81396 10.64374,-7.94305 15.62248,-6.72839 4.9064,1.1961 9.25728,7.5105 12.69322,10.94647 11.69929,-7.31814 21.47698,-18.64542 31.24104,-28.30105 4.20245,-4.15562 9.72501,-8.98782 8.12956,-15.63713 -3.09715,-12.90224 -21.43502,-24.48822 -30.58292,-33.23584 -6.88953,-6.58779 -17.82524,-23.31163 -28.31577,-23.18666 -5.72367,0.0672 -9.98662,5.87306 -13.66963,9.55511 l -27.33931,27.3393 m 47.84474,1.40016 c 14.23989,-3.90952 20.85212,17.77837 6.83288,21.60978 -14.16563,3.87239 -20.87259,-17.75591 -6.83288,-21.60978 M 641.60233,361.01506 c 40.41139,-5.82326 64.58126,47.56457 30.2685,72.16701 -5.77933,4.14483 -12.56321,6.19823 -19.52809,7.18731 -49.54544,7.03401 -60.47106,-72.18846 -10.74041,-79.35432 z"
         id="path860" />
      <path
         style="fill:#ffffff;stroke:none;stroke-width:0.976403"
         d="m 640.31568,150.79524 c -16.88496,9.40974 -30.90025,23.961 -44.9146,37.01551 -19.66577,18.32027 -43.12583,38.15007 -53.70222,63.55411 -6.81727,-4.80194 -23.23843,-18.80456 -24.51464,-27.33929 -0.96462,-6.44817 6.79487,-15.61173 10.28546,-20.50448 12.56341,-17.60944 28.03648,-31.93624 43.52129,-46.85686 9.29924,-8.96095 19.59745,-17.11764 30.26859,-24.39271 3.52867,-2.40616 9.11471,-6.79667 13.66574,-6.3444 3.556,0.35326 5.78715,3.90896 7.98113,6.31726 5.6914,6.24729 12.5321,11.62788 17.40925,18.55086 m 6.83482,7.81126 c -21.73277,14.78374 -40.0726,33.23776 -58.58425,51.74941 -14.08956,14.08952 -30.02444,29.46983 -40.03256,46.86738 -9.53366,-5.31354 8.37164,-23.38289 12.74205,-28.31569 18.88558,-21.31198 37.67068,-43.16292 60.48826,-60.41016 5.30383,-4.01007 20.70367,-18.93469 25.3865,-9.89094 m 3.90563,1.95279 c 16.77167,16.77172 33.89977,33.12063 50.77303,49.79272 2.3053,2.27792 18.23728,13.96452 13.99967,17.53328 -4.25718,3.58533 -13.51343,-7.16584 -17.9053,-8.00162 -4.7766,-0.90903 -8.02314,5.01673 -12.69327,3.08152 -17.32041,-7.18144 -25.93524,-33.642 -43.93818,-39.89781 -7.59839,-2.64024 -14.93413,7.12386 -19.52808,11.66216 -14.13641,13.96747 -37.0731,28.92111 -46.04726,46.87131 -4.21317,8.4273 1.25076,13.77802 6.9911,19.52805 9.27195,9.28759 26.35998,19.85228 32.14028,31.65897 2.23499,4.56467 -4.24248,10.05303 -3.56193,15.20845 0.47163,3.57559 13.23124,15.16356 9.08449,17.4034 -4.04916,2.18815 -14.36291,-10.00522 -17.15834,-12.60925 -13.27226,-12.36226 -25.78493,-25.54175 -39.0562,-37.90401 -3.59418,-3.34905 -13.25374,-9.05126 -12.64835,-14.73393 0.98517,-9.26317 16.29716,-22.75512 22.38797,-29.29212 22.75024,-24.41794 47.91612,-53.4777 77.16037,-70.30112 m 28.31572,63.46628 v 0.9764 c -3.53556,3.53556 -9.26218,7.58664 -10.4153,12.69325 -1.38358,6.12693 2.59725,13.74874 5.96288,18.55168 8.82281,12.59074 20.95951,23.34193 31.79169,34.17412 16.5208,16.52079 35.15156,33.2622 57.60788,41.14078 6.611,2.31901 12.76907,3.14405 19.52809,1.11705 5.16771,-1.55055 11.0431,-5.75595 16.59886,-4.57058 6.50068,1.38651 10.50837,7.57397 14.73345,12.10939 9.38519,10.07554 18.55727,20.47713 28.23213,30.26851 4.86834,4.92694 11.16069,9.27194 11.71304,16.59889 4.42704,-0.65322 8.44417,2.97316 7.61005,7.81125 -1.69553,9.83432 -12.60445,14.32579 -20.3033,8.78763 -4.10169,19.81906 -13.22735,35.12222 -31.24492,45.04639 -5.94329,3.27387 -15.0375,3.69667 -20.17973,7.76631 -3.23191,2.55721 -0.43207,6.39744 -1.62133,9.67324 -2.79791,7.70774 -13.02251,9.56875 -19.20794,5.86234 l 0.97643,-2.9292 c -6.78019,0.74793 -9.43401,-4.31768 -13.70779,-8.78762 -8.10313,-8.47327 -16.10475,-17.07925 -24.37098,-25.38654 -5.52058,-5.54695 -16.98454,-14.50641 -18.32617,-22.4573 -1.00175,-5.94239 3.01221,-11.1398 4.61355,-16.59888 2.01921,-6.88365 1.55443,-15.60779 -0.37592,-22.45729 -6.06154,-21.5063 -25.37967,-39.83142 -39.37351,-56.63142 -9.94857,-11.94241 -20.05927,-24.01368 -32.46251,-33.51021 -3.67519,-2.81398 -10.64375,-7.94305 -15.62247,-6.72843 -4.9064,1.19614 -9.25726,7.51054 -12.69324,10.9465 -11.69929,-7.31813 -21.47696,-18.64541 -31.24104,-28.30107 -4.20241,-4.15559 -9.72501,-8.98779 -8.12954,-15.6371 3.09716,-12.90224 21.43501,-24.48822 30.58293,-33.23584 6.88953,-6.58779 17.82523,-23.31163 28.31577,-23.18666 5.72365,0.0672 9.98661,5.87306 13.66964,9.55511 l 27.3393,27.3393 m -47.84476,1.40016 c -14.23988,-3.90952 -20.85211,17.77837 -6.83289,21.60978 14.16565,3.87239 20.87259,-17.75591 6.83289,-21.60978 m 160.13122,135.58933 c -40.41143,-5.82326 -64.58129,47.56456 -30.26852,72.16701 5.77932,4.14483 12.56323,6.19823 19.52808,7.18731 49.54546,7.03401 60.47106,-72.18849 10.74044,-79.35432 z"
         id="path862"
         inkscape:transform-center-x="84.769559"
         inkscape:transform-center-y="21.735775" />
    </g>
  </g>
</svg>
